<svg width="100" height="18" viewBox="0 0 100 18" fill="none" xmlns="http://www.w3.org/2000/svg">
  <path
    d="M53.4495 5.45682C54.2986 5.45682 55.1254 5.54778 55.9291 5.72878C56.733 5.90991 57.4164 6.15914 57.9776 6.47611L56.7045 9.05638C56.1281 8.69413 55.5196 8.45191 54.8826 8.33116C54.2611 8.19547 53.6611 8.12775 53.0851 8.12775C52.2513 8.12784 51.6444 8.24895 51.2654 8.49036C50.9015 8.71674 50.7188 8.99635 50.7188 9.32834C50.7188 9.61491 50.8713 9.84112 51.1743 10.0071C51.4928 10.1581 51.8954 10.2862 52.3807 10.3918C52.8661 10.4824 53.3904 10.5895 53.9516 10.7102C54.5123 10.8159 55.0352 10.9815 55.5203 11.2077C56.0056 11.419 56.4011 11.7288 56.7045 12.1363C57.0226 12.5287 57.1822 13.065 57.1822 13.7438C57.1821 14.6643 56.9083 15.4496 56.3623 16.0985C55.8315 16.7323 55.1033 17.2077 54.1782 17.5246C53.2532 17.8415 52.1992 17.9999 51.0165 18C49.9396 18 48.9215 17.8789 47.9659 17.6374C47.0259 17.3959 46.2973 17.093 45.7818 16.7309L47.1482 14.1727C47.679 14.5198 48.3231 14.7994 49.0813 15.0107C49.8548 15.222 50.6295 15.3291 51.4031 15.3291C52.237 15.329 52.8437 15.2219 53.2228 15.0107C53.6017 14.7994 53.7916 14.5127 53.7916 14.1506C53.7915 13.864 53.6324 13.6518 53.3139 13.516C52.9954 13.3651 52.5928 13.2462 52.1074 13.1556C51.6223 13.0651 51.0997 12.9579 50.5388 12.8372C49.9928 12.7165 49.4685 12.5511 48.9679 12.3398C48.4826 12.1134 48.08 11.7966 47.7615 11.389C47.4581 10.9664 47.306 10.4144 47.306 9.73517C47.3061 8.81482 47.5659 8.0385 48.0814 7.40474C48.6123 6.77079 49.3403 6.28637 50.2655 5.95431C51.2056 5.62249 52.2669 5.45688 53.4495 5.45682Z"
    fill="currentColor"/>
  <path
    d="M95.4718 5.45682C96.3212 5.45682 97.1497 5.54765 97.9537 5.72878C98.7571 5.90987 99.439 6.15929 100 6.47611L98.7269 9.05638C98.1507 8.69426 97.544 8.45196 96.9071 8.33116C96.2855 8.19538 95.6858 8.12781 95.1096 8.12775C94.2754 8.12775 93.6669 8.24885 93.2877 8.49036C92.9241 8.7167 92.7434 8.99645 92.7433 9.32834C92.7433 9.61481 92.8939 9.84114 93.1966 10.0071C93.515 10.158 93.918 10.2862 94.4031 10.3918C94.8885 10.4824 95.4127 10.5895 95.974 10.7102C96.5347 10.8159 97.0576 10.9815 97.5426 11.2077C98.028 11.419 98.4235 11.7288 98.7269 12.1363C99.0451 12.5287 99.2046 13.0648 99.2046 13.7438C99.2045 14.6643 98.9307 15.4496 98.3847 16.0985C97.8539 16.7322 97.1256 17.2077 96.2006 17.5246C95.2756 17.8415 94.2216 18 93.0389 18C91.9622 18 90.9458 17.8788 89.9904 17.6374C89.0501 17.3959 88.322 17.0931 87.8063 16.7309L89.1706 14.1727C89.7012 14.5197 90.3456 14.7994 91.1036 15.0107C91.8772 15.222 92.6519 15.3291 93.4255 15.3291C94.2596 15.3291 94.866 15.222 95.2452 15.0107C95.6243 14.7994 95.814 14.5128 95.814 14.1506C95.8139 13.864 95.6547 13.6518 95.3363 13.516C95.0178 13.3652 94.615 13.2462 94.1298 13.1556C93.6447 13.0651 93.122 12.9579 92.5612 12.8372C92.0151 12.7165 91.4908 12.5511 90.9903 12.3398C90.505 12.1134 90.1023 11.7965 89.7838 11.389C89.4806 10.9664 89.3305 10.4143 89.3305 9.73517C89.3307 8.81492 89.5884 8.03846 90.1038 7.40474C90.6346 6.77079 91.3626 6.28637 92.2879 5.95431C93.2279 5.62244 94.2893 5.45692 95.4718 5.45682Z"
    fill="currentColor"/>
  <path fill-rule="evenodd" clip-rule="evenodd"
        d="M21.5455 8.12775C22.504 8.1278 23.3596 8.33973 24.1118 8.76231C24.8762 9.17284 25.4713 9.74603 25.896 10.4825C26.3328 11.2069 26.5514 12.0526 26.5514 13.0185C26.5514 13.9724 26.3327 14.8181 25.896 15.5546C25.4714 16.291 24.876 16.8699 24.1118 17.2925C23.3596 17.7151 22.504 17.927 21.5455 17.927C20.5749 17.927 19.7138 17.715 18.9615 17.2925C18.2092 16.8699 17.6142 16.2911 17.1773 15.5546C16.7405 14.8059 16.5219 13.9604 16.5219 13.0185C16.5219 12.0647 16.7405 11.219 17.1773 10.4825C17.6141 9.74621 18.2094 9.17275 18.9615 8.76231C19.7137 8.33994 20.5751 8.12775 21.5455 8.12775ZM21.5455 9.64894C20.9267 9.64894 20.3734 9.78909 19.888 10.0668C19.4032 10.3444 19.0148 10.7364 18.7238 11.2431C18.4326 11.7381 18.2861 12.3304 18.286 13.0185C18.286 13.6946 18.4326 14.2925 18.7238 14.8117C19.0149 15.3188 19.4028 15.7125 19.888 15.9902C20.3734 16.2679 20.9267 16.4058 21.5455 16.4058C22.1639 16.4058 22.7158 16.2675 23.2008 15.9902C23.6983 15.7124 24.0882 15.3189 24.3673 14.8117C24.6462 14.2926 24.785 13.6945 24.785 13.0185C24.785 12.3304 24.6464 11.7381 24.3673 11.2431C24.0882 10.736 23.6983 10.3445 23.2008 10.0668C22.7156 9.78929 22.1641 9.64899 21.5455 9.64894Z"
        fill="currentColor"/>
  <path fill-rule="evenodd" clip-rule="evenodd"
        d="M41.8468 8.12775C42.8054 8.12775 43.663 8.33968 44.4153 8.76231C45.1791 9.1727 45.7727 9.74652 46.1973 10.4825C46.6341 11.2069 46.8527 12.0526 46.8527 13.0185C46.8527 13.9725 46.6341 14.818 46.1973 15.5546C45.7728 16.2906 45.1791 16.87 44.4153 17.2925C43.663 17.7151 42.8054 17.927 41.8468 17.927C40.8765 17.9269 40.0149 17.715 39.2628 17.2925C38.5108 16.8699 37.9153 16.2909 37.4786 15.5546C37.0419 14.806 36.8232 13.9603 36.8232 13.0185C36.8232 12.0647 37.0418 11.219 37.4786 10.4825C37.9154 9.74603 38.5106 9.17285 39.2628 8.76231C40.0149 8.33983 40.8765 8.12789 41.8468 8.12775ZM41.8468 9.64894C41.2284 9.64909 40.6766 9.78924 40.1915 10.0668C39.7065 10.3444 39.3184 10.7364 39.0273 11.2431C38.7361 11.7381 38.5896 12.3304 38.5896 13.0185C38.5896 13.6948 38.736 14.2925 39.0273 14.8117C39.3185 15.3188 39.7062 15.7125 40.1915 15.9902C40.6765 16.2676 41.2285 16.4057 41.8468 16.4058C42.4656 16.4058 43.019 16.2678 43.5043 15.9902C44.0019 15.7124 44.3895 15.3189 44.6686 14.8117C44.9477 14.2925 45.0885 13.6947 45.0885 13.0185C45.0885 12.3304 44.9477 11.7381 44.6686 11.2431C44.3896 10.7364 44.0015 10.3444 43.5043 10.0668C43.019 9.78909 42.4657 9.64894 41.8468 9.64894Z"
        fill="currentColor"/>
  <path
    d="M12.0692 8.12775C12.8452 8.12782 13.5302 8.2795 14.1245 8.58101C14.7191 8.88289 15.1811 9.34265 15.5087 9.95848C15.8482 10.574 16.0174 11.3522 16.0175 12.2933V17.8187H14.2711V12.4945C14.2711 11.5647 14.0525 10.8628 13.6157 10.3918C13.179 9.92134 12.5663 9.68666 11.7782 9.68653C11.1959 9.68653 10.6863 9.80778 10.2495 10.0491C9.81271 10.2906 9.47236 10.6462 9.22968 11.1171C8.99912 11.588 8.88306 12.1745 8.88306 12.8748V17.8187H7.13667V12.4945C7.13667 11.5647 6.91805 10.8628 6.48121 10.3918C6.05651 9.92101 5.44228 9.68653 4.6415 9.68653C4.07157 9.68666 3.56722 9.80777 3.13062 10.0491C2.69441 10.2906 2.35547 10.6466 2.113 11.1171C1.87032 11.588 1.74862 12.1745 1.74862 12.8748V17.8187H0V8.2184H1.67529V9.65336C1.96231 9.2446 2.33916 8.91199 2.80401 8.65397C3.43485 8.30388 4.16886 8.12783 5.00589 8.12775C5.92801 8.12775 6.72261 8.35882 7.38996 8.81759C7.79606 9.08945 8.11666 9.44813 8.35203 9.89436C8.64385 9.4643 9.03239 9.09737 9.52074 8.79769C10.2487 8.35114 11.0987 8.12775 12.0692 8.12775Z"
    fill="currentColor"/>
  <path
    d="M32.2972 8.12775C33.0857 8.12775 33.778 8.27933 34.3724 8.58101C34.9791 8.88289 35.4524 9.34265 35.7922 9.95848C36.1317 10.5741 36.3031 11.3521 36.3032 12.2933V17.8187H34.5546V12.4945C34.5546 11.5647 34.3247 10.8628 33.8636 10.3918C33.4148 9.92117 32.7775 9.68663 31.9528 9.68653C31.3341 9.68653 30.7941 9.80772 30.3331 10.0491C29.872 10.2906 29.5125 10.6461 29.2577 11.1171C29.0151 11.5879 28.8955 12.1747 28.8955 12.8748V17.8187H27.1469V8.2184H28.8222V9.66884C29.1218 9.25336 29.5158 8.91509 30.0042 8.65397C30.6593 8.30391 31.4239 8.12787 32.2972 8.12775Z"
    fill="currentColor"/>
  <path fill-rule="evenodd" clip-rule="evenodd"
        d="M61.8526 10.425L67.7206 5.63813H75.6282L73.1931 17.8187H66.0386L63.1302 13.0827L60.9594 14.8847L60.3728 17.8187H56.8223L60.1906 1.01929H63.739L61.8526 10.425ZM65.9475 10.9402L69.7869 17.2151L72.0532 5.8725L65.9475 10.9402Z"
        fill="currentColor"/>
  <path
    d="M84.2247 5.45682C85.271 5.4569 86.1585 5.67585 86.8865 6.1135C87.6144 6.53613 88.1296 7.16284 88.4329 7.99288C88.7361 8.82279 88.7665 9.84855 88.524 11.0706L87.1598 17.8187H83.6092L84.929 11.2984C85.111 10.4079 85.036 9.72069 84.7024 9.23769C84.3839 8.75468 83.7917 8.51247 82.9271 8.51247C82.0323 8.5125 81.2808 8.77096 80.6741 9.28412C80.0832 9.79719 79.6729 10.5811 79.4454 11.6367L78.2167 17.8187H74.6684L77.1036 5.63813H80.4697L80.2053 6.92937C80.5824 6.5845 80.9957 6.30442 81.4473 6.09139C82.3271 5.66876 83.2539 5.45682 84.2247 5.45682Z"
    fill="currentColor"/>
  <path
    d="M74.7417 0C75.3633 0.000133994 75.8646 0.174776 76.2437 0.521803C76.6374 0.853728 76.8347 1.26894 76.8347 1.76661C76.8346 2.4155 76.6146 2.94446 76.1748 3.35192C75.7502 3.74419 75.181 3.93997 74.4684 3.94006C73.8465 3.94006 73.3456 3.76541 72.9664 3.41825C72.5875 3.05606 72.3976 2.61794 72.3976 2.1049C72.3979 1.50161 72.6109 1.00468 73.0353 0.612455C73.4752 0.204918 74.044 0 74.7417 0Z"
    fill="currentColor"/>
</svg>
